<?xml version="1.0" encoding="utf-8"?>
<!-- Generator: Adobe Illustrator 19.0.0, SVG Export Plug-In . SVG Version: 6.00 Build 0)  -->
<svg version="1.1" id="Layer_1" xmlns="http://www.w3.org/2000/svg" xmlns:xlink="http://www.w3.org/1999/xlink" x="0px" y="0px"
	 viewBox="0 0 400 69" style="enable-background:new 0 0 400 69;" xml:space="preserve">
<style type="text/css">
	.st0{fill:#FFFFFF;}
</style>
<g id="XMLID_219_">
	<path id="XMLID_1202_" class="st0" d="M20.9,60.3c0,4.6-3.6,8.3-8.2,8.5H8.6C3.8,68.8,0,65,0,60.3v-51c0-4.7,3.8-8.5,8.6-8.5h4.2
		c4.6,0.1,8.2,3.9,8.2,8.5v10.2c0,2.2-1,3.2-1.8,3.6l-4.9,2.3V10.5c0-2-1.6-3.6-3.7-3.6c-2,0-3.6,1.6-3.6,3.6v48.6
		c0,2.1,1.6,3.7,3.6,3.7c2.1,0,3.7-1.6,3.7-3.7v-8.9c0-2.2,1-3.2,1.8-3.7c0.6-0.3,3.2-1.4,4.9-2.2V60.3z"/>
	<path id="XMLID_1198_" class="st0" d="M70.1,0.8c4.6,0.2,8.3,3.9,8.3,8.5v51.1c-0.1,4.6-3.7,8.2-8.3,8.4h-5.2
		c-4.7,0-8.5-3.8-8.6-8.4V9.3c0-4.7,3.8-8.5,8.6-8.5H70.1z M67.8,62.8c2,0,3.6-1.6,3.6-3.7V10.6c0-2.1-1.6-3.7-3.6-3.7h-1
		c-2,0.1-3.6,1.7-3.6,3.7v48.5c0,2,1.6,3.6,3.6,3.7H67.8z"/>
	<path id="XMLID_1195_" class="st0" d="M135.6,6.5c-0.4,0.9-1.4,1.8-3.6,1.8h-5.3c-1,0-1.6,0.8-1.7,1.6v58.2h-4.9
		c-1.6,0-1.9-1-1.9-1.4V8.3h-9.6V3.6c0-1.1,1-2.1,2.1-2.1h27.2L135.6,6.5z"/>
	<path id="XMLID_1191_" class="st0" d="M179.5,0.8c4.6,0.2,8.3,3.9,8.3,8.5v51.1c-0.1,4.6-3.7,8.2-8.3,8.4h-5.2
		c-4.7,0-8.5-3.8-8.6-8.4V9.3c0-4.7,3.8-8.5,8.6-8.5H179.5z M177.3,62.8c2,0,3.6-1.6,3.6-3.7V10.6c0-2.1-1.6-3.7-3.6-3.7h-1
		c-2,0.1-3.6,1.7-3.6,3.7v48.5c0,2,1.6,3.6,3.6,3.7H177.3z"/>
	<path id="XMLID_1035_" class="st0" d="M237.1,1.5c4.6,0,8.7,3.7,8.7,8.4v17.2c0,6.5-3.1,11.1-9.7,11.1H232v29.9h-4.9
		c-1.6,0-1.9-1-1.9-1.4V1.5H237.1z M239.2,11.1c-0.2-1.8-1.7-3.2-3.6-3.2H232v24h3.6c1.9,0,3.4-1.4,3.6-3.2V11.1z"/>
	<path id="XMLID_872_" class="st0" d="M338,68.1h-7.9l10.6-35.3l-8.9-31.3h5.3c0.3,0,2,0,2.7,2.3l4.9,17.7l4.6-17.7
		c0.7-2.3,2.4-2.3,2.7-2.3h5.3l-8.6,31.4l9.9,35.2H351l-6.2-24.2L338,68.1z"/>
	<path id="XMLID_849_" class="st0" d="M397.2,1.5c2,0,2.8,1.5,2.8,2.7v63.9h-4.9c-1.6,0-1.9-1-2-1.4V1.5H397.2z"/>
	<path id="XMLID_841_" class="st0" d="M296.4,4.1c-0.3-1.8-0.8-3.9-3.6-3.9h-3.4h-0.1h0h-3.7h0h0h-3.7l-10.1,67.1h3.7h0h3.8h3.7h0
		l0.1-0.2l5.9-36.5l6,36.7h0h3.5h4h0h3.5L296.4,4.1z"/>
</g>
</svg>
