<?xml version="1.0" encoding="utf-8"?>
<!-- Generator: Adobe Illustrator 19.0.0, SVG Export Plug-In . SVG Version: 6.00 Build 0)  -->
<svg version="1.1" id="Layer_1" xmlns="http://www.w3.org/2000/svg" xmlns:xlink="http://www.w3.org/1999/xlink" x="0px" y="0px"
	 viewBox="0 0 400 390" style="enable-background:new 0 0 400 390;" xml:space="preserve">
<style type="text/css">
	.st0{fill:#0077B5;}
</style>
<g id="XMLID_2642_">
	<g id="XMLID_134_">
		<g id="XMLID_137_">
			<path id="XMLID_138_" class="st0" d="M221.7,368.9c-26.3,0-51.7,0-77.4,0c0-78.1,0-156,0-234.3c25.4,0,50.9,0,77.1,0
				c0,10.3,0,20.6,0,32.1c1.5-1.3,2.1-1.6,2.5-2.1c26.1-40.2,72.8-42.7,107.1-27.9c28.1,12.1,42.2,35.5,47.9,64.5
				c2,10.2,3.1,20.8,3.2,31.2c0.3,44,0.2,87.9,0.2,131.9c0,1.3-0.1,2.5-0.2,4.3c-25.8,0-51.4,0-77.8,0c0-2,0-4.1,0-6.2
				c0-38.6,0.2-77.3-0.2-115.9c-0.1-10-1-20.4-3.8-29.9c-8.2-27-41.8-35.4-62.8-16.3c-9.5,8.7-15.2,19.3-15.3,32.4
				c-0.1,26.3-0.2,52.6-0.3,78.9c0,16.7,0,33.5,0,50.2C221.7,364,221.7,366.2,221.7,368.9z"/>
		</g>
		<path id="XMLID_136_" class="st0" d="M100.2,368.8c-26.1,0-51.6,0-77.4,0c0-78.2,0-156.1,0-234.3c25.8,0,51.4,0,77.4,0
			C100.2,212.5,100.2,290.4,100.2,368.8z"/>
		<path id="XMLID_135_" class="st0" d="M62.1,101.9c-21.7,0-38.2-11.4-42.8-29c-6.3-24,7.7-46,32-50.7c20.6-3.9,39.6,3.3,48.3,18.3
			c15.6,26.8-0.5,57.7-31.8,61C65.7,101.8,63.5,101.8,62.1,101.9z"/>
	</g>
</g>
</svg>
