<?xml version="1.0" encoding="utf-8"?>
<!-- Generator: Adobe Illustrator 19.0.0, SVG Export Plug-In . SVG Version: 6.00 Build 0)  -->
<svg version="1.1" id="Layer_1" xmlns="http://www.w3.org/2000/svg" xmlns:xlink="http://www.w3.org/1999/xlink" x="0px" y="0px"
	 viewBox="0 0 400 390" style="enable-background:new 0 0 400 390;" xml:space="preserve">
<style type="text/css">
	.st0{fill:#1DA1F2;}
</style>
<path id="XMLID_2573_" class="st0" d="M120.4,287.4c-37.9-3.5-62.9-22-77-57.4c12.6,0,23.9,0,35.2,0c0.1-0.6,0.2-1.3,0.3-1.9
	c-18.5-4.7-34.1-14.1-46.1-29c-12-15-18-32.1-18-52.1c11.5,5.3,22.5,9.6,36.6,9.6c-18.1-13.5-29.6-29.6-34.1-50.1
	c-4.4-20.4-2-40.1,9-59.3c44.9,52.1,100.9,81.5,170.2,85.8c-3.1-16.3-2.7-31.4,2.3-46.2c19.3-56.5,92.2-74.1,134.9-32.4
	c2.7,2.6,5,3.3,8.3,2.1c15.4-5.4,30.9-10.7,46.2-16c-5.5,16.9-17,30.7-32.8,41.2c0.3,0.6,0.6,1.3,0.9,1.9
	c13.9-3.7,27.9-7.4,43.6-11.5c-7,8.1-12.8,15.6-19.4,22.3c-5.5,5.7-12,10.3-17.7,15.8c-1.7,1.6-3.3,4.5-3.2,6.7
	c0.7,47.6-11.5,91.6-36.6,131.9c-35,56.1-84.3,92-149.7,104.4C113.1,365,56.1,356.3,3.3,324.1c-0.6-0.4-1.2-0.9-3.3-2.3
	C44.9,325.3,84.6,315,120.4,287.4z"/>
</svg>
