<?xml version="1.0" encoding="utf-8"?>
<!-- Generator: Adobe Illustrator 19.0.0, SVG Export Plug-In . SVG Version: 6.00 Build 0)  -->
<svg version="1.1" id="Layer_1" xmlns="http://www.w3.org/2000/svg" xmlns:xlink="http://www.w3.org/1999/xlink" x="0px" y="0px"
	 viewBox="0 0 400 390" style="enable-background:new 0 0 400 390;" xml:space="preserve">
<style type="text/css">
	.st0{fill:#FFFFFF;}
</style>
<path id="XMLID_2391_" class="st0" d="M230.3,389.9c-24.4,0-47.9,0-71.9,0c0-59.2,0-118.1,0-177.8c-20.1,0-39.7,0-59.7,0
	c0-23.3,0-46,0-69.5c19.5,0,39.2,0,59.5,0c0-4.2,0-7.7,0-11.1c0.3-18.6-0.4-37.2,1.2-55.7c3.5-41.4,30.1-70.3,71.1-74.7
	c22.2-2.4,45,0.2,67.6,0.7c1.1,0,3.1,2.1,3.1,3.3c0.2,19.3,0.1,38.6,0.1,58.5c-2.2,0.1-4.1,0.3-6.1,0.3c-13.1,0.2-26.2,0.1-39.3,0.8
	c-15,0.9-23.3,7.3-24.5,22.1c-1.5,18.2-0.4,36.6-0.4,55.5c22.1,0,44.4,0,67.6,0c-1,8.4-1.9,16.3-2.9,24.1
	c-1.7,13.4-3.6,26.7-5.2,40.1c-0.5,4-1.7,5.6-6.1,5.5c-15.9-0.3-31.7-0.1-47.6-0.1c-2,0-4,0-6.6,0
	C230.3,271.3,230.3,330.2,230.3,389.9z"/>
</svg>
